<svg width="349" height="333" viewBox="0 0 349 333" fill="none" xmlns="http://www.w3.org/2000/svg">
<g filter="url(#filter0_i_503_1393)">
<path d="M307.132 130.388C307.132 178.616 268.036 217.713 219.808 217.713C171.58 217.713 132.483 178.616 132.483 130.388C132.483 82.1605 171.58 43.064 219.808 43.064C268.036 43.064 307.132 82.1605 307.132 130.388Z" fill="#FFAB0B"/>
</g>
<path fill-rule="evenodd" clip-rule="evenodd" d="M218.489 0.00177795C218.729 0.000471149 218.969 -0.000183105 219.209 -0.000183105C219.45 -0.000183105 219.69 0.000471149 219.93 0.00177795C225.215 0.0305509 229.476 4.33836 229.448 9.62354C229.419 14.9087 225.111 19.1699 219.826 19.1411C219.62 19.14 219.415 19.1394 219.209 19.1394C219.004 19.1394 218.798 19.14 218.593 19.1411C213.308 19.1699 209 14.9087 208.971 9.62354C208.943 4.33836 213.204 0.0305509 218.489 0.00177795ZM141.476 37.583C145.193 41.3407 145.159 47.3999 141.402 51.1165C141.111 51.4036 140.823 51.6923 140.536 51.9826C136.819 55.7403 130.76 55.7736 127.002 52.0569C123.244 48.3403 123.211 42.2811 126.928 38.5234C127.264 38.1833 127.602 37.845 127.942 37.5086C131.7 33.7919 137.759 33.8252 141.476 37.583ZM296.943 37.583C300.66 33.8252 306.719 33.7919 310.476 37.5086C310.817 37.845 311.155 38.1833 311.491 38.5234C315.208 42.2811 315.175 48.3403 311.417 52.0569C307.659 55.7736 301.6 55.7403 297.883 51.9826C297.596 51.6923 297.308 51.4036 297.017 51.1165C293.26 47.3999 293.226 41.3407 296.943 37.583ZM339.376 119.552C344.661 119.524 348.969 123.785 348.998 129.07C348.999 129.31 349 129.55 349 129.79C349 130.031 348.999 130.271 348.998 130.511C348.969 135.796 344.661 140.057 339.376 140.028C334.091 140 329.83 135.692 329.859 130.407C329.86 130.201 329.86 129.996 329.86 129.79C329.86 129.585 329.86 129.379 329.859 129.174C329.83 123.889 334.091 119.581 339.376 119.552ZM99.0426 119.552C104.328 119.581 108.589 123.889 108.56 129.174C108.559 129.379 108.558 129.585 108.558 129.79C108.558 129.996 108.559 130.201 108.56 130.407C108.589 135.692 104.328 140 99.0426 140.028C93.7574 140.057 89.4496 135.796 89.4208 130.511C89.4195 130.271 89.4189 130.031 89.4189 129.79C89.4189 129.55 89.4195 129.31 89.4208 129.07C89.4496 123.785 93.7574 119.524 99.0426 119.552ZM127.002 207.524C130.76 203.807 136.819 203.84 140.536 207.598C140.823 207.888 141.111 208.177 141.402 208.464C145.159 212.181 145.193 218.24 141.476 221.998C137.759 225.756 131.7 225.789 127.942 222.072C127.602 221.736 127.264 221.397 126.928 221.057C123.211 217.3 123.244 211.24 127.002 207.524ZM311.417 207.524C315.175 211.24 315.208 217.3 311.491 221.057C311.155 221.397 310.817 221.736 310.476 222.072C306.719 225.789 300.66 225.756 296.943 221.998C293.226 218.24 293.26 212.181 297.017 208.464C297.308 208.177 297.596 207.888 297.883 207.598C301.6 203.84 307.659 203.807 311.417 207.524ZM208.971 249.957C209 244.672 213.308 240.411 218.593 240.44C218.798 240.441 219.004 240.441 219.209 240.441C219.415 240.441 219.62 240.441 219.826 240.44C225.111 240.411 229.419 244.672 229.448 249.957C229.476 255.242 225.215 259.55 219.93 259.579C219.814 259.58 219.698 259.58 219.582 259.58C219.458 259.581 219.334 259.581 219.209 259.581C218.969 259.581 218.729 259.58 218.489 259.579C213.204 259.55 208.943 255.242 208.971 249.957Z" fill="#FFE200"/>
<g filter="url(#filter1_bdi_503_1393)">
<path fill-rule="evenodd" clip-rule="evenodd" d="M87.0264 284.689C86.6287 284.697 86.23 284.702 85.8302 284.702C56.1006 284.702 32 260.601 32 230.872C32 210.696 43.0994 193.113 59.5251 183.895C59.5172 183.406 59.5132 182.916 59.5132 182.424C59.5132 133.205 99.4131 93.3055 148.632 93.3055C191.088 93.3055 226.609 122.993 235.57 162.741C268.056 164.105 293.974 190.873 293.974 223.694C293.974 257.388 266.66 284.702 232.966 284.702C232.165 284.702 231.367 284.686 230.574 284.656V284.702H87.0264V284.689Z" fill="url(#paint0_radial_503_1393)" fill-opacity="0.77"/>
</g>
<g style="mix-blend-mode:soft-light" filter="url(#filter2_di_503_1393)">
<path d="M139.66 230.872C139.66 260.601 115.56 284.702 85.8302 284.702C56.1006 284.702 32 260.601 32 230.872C32 201.142 56.1006 177.041 85.8302 177.041C115.56 177.041 139.66 201.142 139.66 230.872Z" fill="#848484"/>
</g>
<defs>
<filter id="filter0_i_503_1393" x="122.483" y="43.064" width="184.649" height="187.649" filterUnits="userSpaceOnUse" color-interpolation-filters="sRGB">
<feFlood flood-opacity="0" result="BackgroundImageFix"/>
<feBlend mode="normal" in="SourceGraphic" in2="BackgroundImageFix" result="shape"/>
<feColorMatrix in="SourceAlpha" type="matrix" values="0 0 0 0 0 0 0 0 0 0 0 0 0 0 0 0 0 0 127 0" result="hardAlpha"/>
<feOffset dx="-10" dy="13"/>
<feGaussianBlur stdDeviation="12"/>
<feComposite in2="hardAlpha" operator="arithmetic" k2="-1" k3="1"/>
<feColorMatrix type="matrix" values="0 0 0 0 1 0 0 0 0 0.886275 0 0 0 0 0 0 0 0 0.9 0"/>
<feBlend mode="normal" in2="shape" result="effect1_innerShadow_503_1393"/>
</filter>
<filter id="filter1_bdi_503_1393" x="0" y="77.3055" width="325.974" height="255.396" filterUnits="userSpaceOnUse" color-interpolation-filters="sRGB">
<feFlood flood-opacity="0" result="BackgroundImageFix"/>
<feGaussianBlur in="BackgroundImage" stdDeviation="7.5"/>
<feComposite in2="SourceAlpha" operator="in" result="effect1_backgroundBlur_503_1393"/>
<feColorMatrix in="SourceAlpha" type="matrix" values="0 0 0 0 0 0 0 0 0 0 0 0 0 0 0 0 0 0 127 0" result="hardAlpha"/>
<feOffset dy="16"/>
<feGaussianBlur stdDeviation="16"/>
<feColorMatrix type="matrix" values="0 0 0 0 0 0 0 0 0 0.2015 0 0 0 0 0.3875 0 0 0 0.2 0"/>
<feBlend mode="normal" in2="effect1_backgroundBlur_503_1393" result="effect2_dropShadow_503_1393"/>
<feBlend mode="normal" in="SourceGraphic" in2="effect2_dropShadow_503_1393" result="shape"/>
<feColorMatrix in="SourceAlpha" type="matrix" values="0 0 0 0 0 0 0 0 0 0 0 0 0 0 0 0 0 0 127 0" result="hardAlpha"/>
<feOffset dx="3" dy="3"/>
<feGaussianBlur stdDeviation="2.5"/>
<feComposite in2="hardAlpha" operator="arithmetic" k2="-1" k3="1"/>
<feColorMatrix type="matrix" values="0 0 0 0 1 0 0 0 0 1 0 0 0 0 1 0 0 0 1 0"/>
<feBlend mode="normal" in2="shape" result="effect3_innerShadow_503_1393"/>
</filter>
<filter id="filter2_di_503_1393" x="24" y="161.041" width="119.66" height="125.66" filterUnits="userSpaceOnUse" color-interpolation-filters="sRGB">
<feFlood flood-opacity="0" result="BackgroundImageFix"/>
<feColorMatrix in="SourceAlpha" type="matrix" values="0 0 0 0 0 0 0 0 0 0 0 0 0 0 0 0 0 0 127 0" result="hardAlpha"/>
<feOffset dx="-2" dy="-10"/>
<feGaussianBlur stdDeviation="3"/>
<feColorMatrix type="matrix" values="0 0 0 0 0 0 0 0 0 0 0 0 0 0 0 0 0 0 0.22 0"/>
<feBlend mode="normal" in2="BackgroundImageFix" result="effect1_dropShadow_503_1393"/>
<feBlend mode="normal" in="SourceGraphic" in2="effect1_dropShadow_503_1393" result="shape"/>
<feColorMatrix in="SourceAlpha" type="matrix" values="0 0 0 0 0 0 0 0 0 0 0 0 0 0 0 0 0 0 127 0" result="hardAlpha"/>
<feOffset dx="4" dy="2"/>
<feGaussianBlur stdDeviation="2.5"/>
<feComposite in2="hardAlpha" operator="arithmetic" k2="-1" k3="1"/>
<feColorMatrix type="matrix" values="0 0 0 0 1 0 0 0 0 1 0 0 0 0 1 0 0 0 0.74 0"/>
<feBlend mode="normal" in2="shape" result="effect2_innerShadow_503_1393"/>
</filter>
<radialGradient id="paint0_radial_503_1393" cx="0" cy="0" r="1" gradientUnits="userSpaceOnUse" gradientTransform="translate(124.306 134.114) rotate(90.6693) scale(150.519 171.763)">
<stop stop-color="white"/>
<stop offset="1" stop-color="#99CEFF"/>
</radialGradient>
</defs>
</svg>
