<svg width="200" height="90" viewBox="0 0 200 90" fill="none" xmlns="http://www.w3.org/2000/svg">
<g filter="url(#filter0_i_1_1121)">
<rect width="200" height="90" rx="45" fill="url(#paint0_linear_1_1121)"/>
</g>
<path d="M113.642 25.886C114.129 25.1882 115.209 25.3787 115.428 26.2009L116.203 29.1073C116.292 29.4416 116.547 29.7061 116.878 29.8067L119.756 30.6814C120.57 30.9288 120.723 32.0153 120.008 32.4776L117.483 34.112C117.193 34.3 117.02 34.6247 117.027 34.9705L117.084 37.9777C117.101 38.8284 116.114 39.3095 115.454 38.773L113.119 36.8767C112.851 36.6586 112.489 36.5947 112.162 36.7079L109.32 37.6917C108.515 37.9701 107.753 37.1809 108.059 36.387L109.141 33.5806C109.266 33.2579 109.215 32.8937 109.006 32.6178L107.192 30.2186C106.679 29.5399 107.194 28.5712 108.044 28.617L111.047 28.7789C111.392 28.7975 111.723 28.6363 111.921 28.3526L113.642 25.886Z" fill="url(#paint1_linear_1_1121)"/>
<path d="M90.9502 12.3894C91.0689 12.2193 91.3323 12.2657 91.3856 12.4661L91.5743 13.1745C91.596 13.256 91.6583 13.3205 91.7389 13.345L92.4403 13.5582C92.6387 13.6185 92.676 13.8833 92.5019 13.996L91.8865 14.3943C91.8157 14.4401 91.7736 14.5192 91.7752 14.6035L91.7892 15.3365C91.7932 15.5438 91.5528 15.6611 91.3919 15.5303L90.8229 15.0681C90.7574 15.015 90.6692 14.9994 90.5895 15.027L89.8967 15.2668C89.7008 15.3346 89.515 15.1423 89.5896 14.9488L89.8533 14.2648C89.8837 14.1861 89.8712 14.0974 89.8203 14.0301L89.3782 13.4454C89.2532 13.28 89.3787 13.0438 89.5858 13.055L90.3178 13.0945C90.402 13.099 90.4825 13.0597 90.5308 12.9906L90.9502 12.3894Z" fill="url(#paint2_linear_1_1121)"/>
<path d="M142.449 33.1502C142.572 32.6493 143.224 32.5208 143.527 32.9378L144.6 34.4116C144.724 34.5811 144.926 34.6748 145.135 34.6594L146.953 34.5249C147.467 34.4869 147.791 35.0677 147.488 35.4852L146.418 36.9609C146.295 37.1307 146.268 37.352 146.348 37.5461L147.037 39.2335C147.233 39.7109 146.78 40.1983 146.29 40.0394L144.555 39.4776C144.356 39.413 144.137 39.4561 143.977 39.5915L142.585 40.7688C142.192 41.1019 141.588 40.8224 141.588 40.3067L141.586 38.4837C141.586 38.274 141.477 38.0793 141.299 37.969L139.749 37.0091C139.311 36.7376 139.39 36.0774 139.881 35.9176L141.614 35.3527C141.813 35.2878 141.965 35.1244 142.015 34.9207L142.449 33.1502Z" fill="url(#paint3_linear_1_1121)"/>
<path d="M163.01 21.4035C163.079 21.1229 163.444 21.051 163.614 21.2845L164.215 22.11C164.284 22.2049 164.397 22.2574 164.514 22.2487L165.532 22.1734C165.821 22.1521 166.002 22.4774 165.832 22.7113L165.233 23.5378C165.164 23.6329 165.149 23.7568 165.193 23.8655L165.58 24.8106C165.689 25.078 165.436 25.351 165.161 25.262L164.19 24.9473C164.078 24.9111 163.955 24.9352 163.866 25.0111L163.086 25.6705C162.866 25.8571 162.528 25.7005 162.528 25.4116L162.527 24.3906C162.527 24.2732 162.466 24.1642 162.366 24.1024L161.498 23.5648C161.252 23.4127 161.297 23.0429 161.571 22.9534L162.542 22.6371C162.654 22.6007 162.739 22.5092 162.767 22.3951L163.01 21.4035Z" fill="url(#paint4_linear_1_1121)"/>
<path d="M132.418 9.86209C132.75 9.71979 133.097 10.031 132.992 10.3766L132.618 11.5982C132.575 11.7387 132.608 11.8914 132.705 12.002L133.546 12.9632C133.784 13.2352 133.595 13.6612 133.234 13.6676L131.957 13.6901C131.81 13.6927 131.675 13.771 131.6 13.8972L130.945 14.9943C130.76 15.3047 130.297 15.2568 130.179 14.9152L129.763 13.7074C129.715 13.5685 129.599 13.4642 129.456 13.4317L128.21 13.1485C127.858 13.0683 127.76 12.6127 128.049 12.3952L129.069 11.6263C129.186 11.5378 129.249 11.395 129.236 11.2487L129.12 9.97656C129.088 9.61667 129.491 9.38298 129.787 9.5902L130.833 10.3227C130.954 10.4069 131.109 10.423 131.244 10.3651L132.418 9.86209Z" fill="url(#paint5_linear_1_1121)"/>
<defs>
<filter id="filter0_i_1_1121" x="0" y="0" width="200" height="96" filterUnits="userSpaceOnUse" color-interpolation-filters="sRGB">
<feFlood flood-opacity="0" result="BackgroundImageFix"/>
<feBlend mode="normal" in="SourceGraphic" in2="BackgroundImageFix" result="shape"/>
<feColorMatrix in="SourceAlpha" type="matrix" values="0 0 0 0 0 0 0 0 0 0 0 0 0 0 0 0 0 0 127 0" result="hardAlpha"/>
<feMorphology radius="3" operator="erode" in="SourceAlpha" result="effect1_innerShadow_1_1121"/>
<feOffset dy="6"/>
<feGaussianBlur stdDeviation="4"/>
<feComposite in2="hardAlpha" operator="arithmetic" k2="-1" k3="1"/>
<feColorMatrix type="matrix" values="0 0 0 0 0 0 0 0 0 0 0 0 0 0 0 0 0 0 0.25 0"/>
<feBlend mode="normal" in2="shape" result="effect1_innerShadow_1_1121"/>
</filter>
<linearGradient id="paint0_linear_1_1121" x1="102.5" y1="3.5" x2="100" y2="90" gradientUnits="userSpaceOnUse">
<stop stop-color="#2B4485"/>
<stop offset="1" stop-color="#AFCAFF"/>
</linearGradient>
<linearGradient id="paint1_linear_1_1121" x1="114.874" y1="24.1202" x2="111.923" y2="40.8621" gradientUnits="userSpaceOnUse">
<stop stop-color="#ADDDFF"/>
<stop offset="1" stop-color="#EDF6FF" stop-opacity="0"/>
</linearGradient>
<linearGradient id="paint2_linear_1_1121" x1="91.2506" y1="11.959" x2="90.5313" y2="16.0395" gradientUnits="userSpaceOnUse">
<stop stop-color="#ADDDFF"/>
<stop offset="1" stop-color="#EDF6FF" stop-opacity="0"/>
</linearGradient>
<linearGradient id="paint3_linear_1_1121" x1="142.759" y1="31.8826" x2="144.75" y2="41.9921" gradientUnits="userSpaceOnUse">
<stop stop-color="#ADDDFF"/>
<stop offset="1" stop-color="#EDF6FF" stop-opacity="0"/>
</linearGradient>
<linearGradient id="paint4_linear_1_1121" x1="163.184" y1="20.6936" x2="164.299" y2="26.3556" gradientUnits="userSpaceOnUse">
<stop stop-color="#ADDDFF"/>
<stop offset="1" stop-color="#EDF6FF" stop-opacity="0"/>
</linearGradient>
<linearGradient id="paint5_linear_1_1121" x1="133.259" y1="9.50198" x2="128.437" y2="14.8759" gradientUnits="userSpaceOnUse">
<stop stop-color="#ADDDFF"/>
<stop offset="1" stop-color="#EDF6FF" stop-opacity="0"/>
</linearGradient>
</defs>
</svg>
