<svg width="82" height="82" viewBox="0 0 82 82" fill="none" xmlns="http://www.w3.org/2000/svg">
<g filter="url(#filter0_d_1_841)">
<circle cx="39" cy="40" r="35" fill="url(#paint0_linear_1_841)"/>
<circle cx="39" cy="40" r="29" fill="url(#paint1_linear_1_841)"/>
<circle cx="39" cy="40" r="35" fill="#FF9255"/>
<circle cx="39" cy="40" r="29" fill="url(#paint2_linear_1_841)"/>
<mask id="mask0_1_841" style="mask-type:alpha" maskUnits="userSpaceOnUse" x="4" y="5" width="70" height="70">
<circle cx="39" cy="40" r="35" fill="url(#paint3_linear_1_841)"/>
</mask>
<g mask="url(#mask0_1_841)">
<path d="M46.5 43.0259C65.3 21.0259 84 20.5259 91 23.0259L102.5 34.0259L92.5 81.5259L20 104.026L-20.5 85.5259L-25 41.5259C-9 51.1925 27.7 65.0259 46.5 43.0259Z" fill="url(#paint4_linear_1_841)"/>
<path d="M36.0002 39.9826C-5.19661 15 -17.3328 22.5952 -23.5716 26.6358L-32.2383 39.9826L-11.598 83.917L64.1313 89.1674L99.3008 61.8616L93.5768 18.0041C80.2241 31.0865 62.2298 55.8889 36.0002 39.9826Z" fill="url(#paint5_linear_1_841)"/>
</g>
</g>
<defs>
<filter id="filter0_d_1_841" x="0" y="0" width="82" height="82" filterUnits="userSpaceOnUse" color-interpolation-filters="sRGB">
<feFlood flood-opacity="0" result="BackgroundImageFix"/>
<feColorMatrix in="SourceAlpha" type="matrix" values="0 0 0 0 0 0 0 0 0 0 0 0 0 0 0 0 0 0 127 0" result="hardAlpha"/>
<feOffset dx="2" dy="1"/>
<feGaussianBlur stdDeviation="3"/>
<feColorMatrix type="matrix" values="0 0 0 0 0 0 0 0 0 0 0 0 0 0 0 0 0 0 0.25 0"/>
<feBlend mode="normal" in2="BackgroundImageFix" result="effect1_dropShadow_1_841"/>
<feBlend mode="normal" in="SourceGraphic" in2="effect1_dropShadow_1_841" result="shape"/>
</filter>
<linearGradient id="paint0_linear_1_841" x1="39" y1="5" x2="39" y2="75" gradientUnits="userSpaceOnUse">
<stop stop-color="#FFC123"/>
<stop offset="1" stop-color="#F8832E"/>
</linearGradient>
<linearGradient id="paint1_linear_1_841" x1="39" y1="11" x2="39" y2="69" gradientUnits="userSpaceOnUse">
<stop stop-color="#FFBF24"/>
<stop offset="1" stop-color="#F4924B"/>
</linearGradient>
<linearGradient id="paint2_linear_1_841" x1="39" y1="11" x2="39" y2="69" gradientUnits="userSpaceOnUse">
<stop stop-color="#FFBF24"/>
<stop offset="1" stop-color="#F4924B"/>
</linearGradient>
<linearGradient id="paint3_linear_1_841" x1="39" y1="5" x2="39" y2="75" gradientUnits="userSpaceOnUse">
<stop stop-color="#FFC123"/>
<stop offset="1" stop-color="#F8832E"/>
</linearGradient>
<linearGradient id="paint4_linear_1_841" x1="38.75" y1="22" x2="38.75" y2="104.026" gradientUnits="userSpaceOnUse">
<stop stop-color="#FF9D55" stop-opacity="0.6"/>
<stop offset="1" stop-color="#FD8A37" stop-opacity="0"/>
</linearGradient>
<linearGradient id="paint5_linear_1_841" x1="27.0466" y1="13.6391" x2="45.8824" y2="93.473" gradientUnits="userSpaceOnUse">
<stop stop-color="#FFBD3E" stop-opacity="0.49"/>
<stop offset="1" stop-color="white" stop-opacity="0"/>
</linearGradient>
</defs>
</svg>
