<svg width="154" height="88" viewBox="0 0 154 88" fill="none" xmlns="http://www.w3.org/2000/svg">
<g filter="url(#filter0_i_311_1833)">
<path d="M91.9638 44.1086C91.9638 52.8652 84.8652 59.9638 76.1086 59.9638C67.352 59.9638 60.2534 52.8652 60.2534 44.1086C60.2534 35.352 67.352 28.2534 76.1086 28.2534C84.8652 28.2534 91.9638 35.352 91.9638 44.1086Z" fill="#FFAB0B"/>
</g>
<path fill-rule="evenodd" clip-rule="evenodd" d="M75.8668 20.0004C75.9112 20.0001 75.9556 20 76 20C76.0444 20 76.0888 20.0001 76.1332 20.0004C77.3327 20.0069 78.2998 20.9846 78.2933 22.1841C78.2867 23.3836 77.3091 24.3507 76.1095 24.3442C76.073 24.344 76.0365 24.3439 76 24.3439C75.9635 24.3439 75.9269 24.344 75.8905 24.3442C74.6909 24.3507 73.7133 23.3836 73.7067 22.1841C73.7002 20.9846 74.6673 20.0069 75.8668 20.0004ZM62.1951 26.9528C63.0386 27.8056 63.031 29.1808 62.1782 30.0243C62.1266 30.0753 62.0753 30.1266 62.0243 30.1782C61.1808 31.031 59.8056 31.0386 58.9528 30.1951C58.0999 29.3515 58.0924 27.9764 58.9359 27.1235C58.9981 27.0606 59.0606 26.9981 59.1235 26.9359C59.9764 26.0924 61.3515 26.0999 62.1951 26.9528ZM89.8049 26.9528C90.6485 26.0999 92.0236 26.0924 92.8765 26.9359C92.9394 26.9981 93.0019 27.0606 93.0641 27.1235C93.9076 27.9764 93.9001 29.3515 93.0472 30.1951C92.1944 31.0386 90.8192 31.031 89.9757 30.1782C89.9247 30.1266 89.8734 30.0753 89.8218 30.0243C88.969 29.1808 88.9614 27.8056 89.8049 26.9528ZM97.8159 41.7067C99.0154 41.7002 99.9931 42.6673 99.9996 43.8668C99.9999 43.9112 100 43.9556 100 44C100 44.0334 99.9999 44.0668 99.9998 44.1002C99.9998 44.1112 99.9997 44.1222 99.9996 44.1332C99.9931 45.3327 99.0154 46.2998 97.8159 46.2933C96.6164 46.2867 95.6493 45.3091 95.6558 44.1095C95.656 44.073 95.6561 44.0365 95.6561 44C95.6561 43.9635 95.656 43.9269 95.6558 43.8905C95.6493 42.6909 96.6164 41.7133 97.8159 41.7067ZM54.1841 41.7067C55.3836 41.7133 56.3507 42.6909 56.3442 43.8905C56.344 43.927 56.3439 43.9635 56.3439 44C56.3439 44.0365 56.344 44.0731 56.3442 44.1095C56.3507 45.3091 55.3836 46.2867 54.1841 46.2933C52.9846 46.2998 52.0069 45.3327 52.0004 44.1332C52.0001 44.0888 52 44.0444 52 44C52 43.9556 52.0001 43.9112 52.0004 43.8668C52.0069 42.6673 52.9846 41.7002 54.1841 41.7067ZM58.9528 57.8049C59.8056 56.9614 61.1808 56.969 62.0243 57.8218C62.0753 57.8734 62.1266 57.9247 62.1782 57.9757C63.031 58.8192 63.0386 60.1944 62.1951 61.0472C61.3515 61.9001 59.9764 61.9076 59.1235 61.0641C59.0606 61.0019 58.9981 60.9394 58.9359 60.8765C58.0924 60.0236 58.0999 58.6485 58.9528 57.8049ZM93.0472 57.8049C93.9001 58.6485 93.9076 60.0236 93.0641 60.8765C93.0019 60.9394 92.9394 61.0019 92.8765 61.0641C92.0236 61.9076 90.6485 61.9001 89.8049 61.0472C88.9614 60.1944 88.969 58.8192 89.8218 57.9757C89.8734 57.9247 89.9247 57.8734 89.9757 57.8218C90.8192 56.969 92.1944 56.9614 93.0472 57.8049ZM73.7067 65.8159C73.7133 64.6164 74.6909 63.6493 75.8905 63.6558C75.9141 63.6559 75.9377 63.656 75.9614 63.6561C75.9743 63.6561 75.9871 63.6561 76 63.6561C76.0365 63.6561 76.0731 63.656 76.1095 63.6558C77.3091 63.6493 78.2867 64.6164 78.2933 65.8159C78.2998 67.0154 77.3327 67.9931 76.1332 67.9996C76.1012 67.9998 76.0691 67.9999 76.0371 68C76.0247 68 76.0124 68 76 68C75.9556 68 75.9112 67.9999 75.8668 67.9996C74.6673 67.9931 73.7002 67.0154 73.7067 65.8159Z" fill="#FFE200"/>
<g opacity="0.7" filter="url(#filter1_f_311_1833)">
<ellipse cx="73.8281" cy="46.9321" rx="8.36199" ry="8.68778" fill="white"/>
<ellipse cx="81.9729" cy="39.3303" rx="10.8597" ry="11.2941" fill="white"/>
<ellipse cx="91.4209" cy="39.1131" rx="8.36199" ry="8.68778" fill="white"/>
<ellipse cx="64.5973" cy="49.5384" rx="9.77376" ry="10.2081" fill="white"/>
<ellipse cx="71.0046" cy="59.8552" rx="5.53846" ry="5.75566" fill="white"/>
</g>
<defs>
<filter id="filter0_i_311_1833" x="50.2534" y="28.2534" width="41.7104" height="44.7104" filterUnits="userSpaceOnUse" color-interpolation-filters="sRGB">
<feFlood flood-opacity="0" result="BackgroundImageFix"/>
<feBlend mode="normal" in="SourceGraphic" in2="BackgroundImageFix" result="shape"/>
<feColorMatrix in="SourceAlpha" type="matrix" values="0 0 0 0 0 0 0 0 0 0 0 0 0 0 0 0 0 0 127 0" result="hardAlpha"/>
<feOffset dx="-10" dy="13"/>
<feGaussianBlur stdDeviation="12"/>
<feComposite in2="hardAlpha" operator="arithmetic" k2="-1" k3="1"/>
<feColorMatrix type="matrix" values="0 0 0 0 1 0 0 0 0 0.886275 0 0 0 0 0 0 0 0 0.9 0"/>
<feBlend mode="normal" in2="shape" result="effect1_innerShadow_311_1833"/>
</filter>
<filter id="filter1_f_311_1833" x="0.823578" y="-25.9639" width="152.959" height="145.575" filterUnits="userSpaceOnUse" color-interpolation-filters="sRGB">
<feFlood flood-opacity="0" result="BackgroundImageFix"/>
<feBlend mode="normal" in="SourceGraphic" in2="BackgroundImageFix" result="shape"/>
<feGaussianBlur stdDeviation="27" result="effect1_foregroundBlur_311_1833"/>
</filter>
</defs>
</svg>
