<svg width="112" height="84" viewBox="0 0 112 84" fill="none" xmlns="http://www.w3.org/2000/svg">
<g filter="url(#filter0_bdi_311_1834)">
<path fill-rule="evenodd" clip-rule="evenodd" d="M42.0822 51.0661C42.0093 51.0677 41.9363 51.0685 41.863 51.0685C36.4158 51.0685 32 46.6527 32 41.2055C32 37.5088 34.0337 34.2872 37.0433 32.5983C37.0418 32.5086 37.0411 32.4188 37.0411 32.3288C37.0411 23.3106 44.3517 16 53.3699 16C61.1488 16 67.6572 21.4395 69.299 28.7223C75.2512 28.9723 80 33.8768 80 39.8904C80 46.0639 74.9954 51.0685 68.8219 51.0685C68.7487 51.0685 68.6756 51.0678 68.6027 51.0664V51.0685H42.0822V51.0661Z" fill="url(#paint0_radial_311_1834)" fill-opacity="0.77"/>
</g>
<g style="mix-blend-mode:soft-light" filter="url(#filter1_di_311_1834)">
<path d="M51.726 41.2055C51.726 46.6527 47.3102 51.0685 41.863 51.0685C36.4158 51.0685 32 46.6527 32 41.2055C32 35.7583 36.4158 31.3425 41.863 31.3425C47.3102 31.3425 51.726 35.7583 51.726 41.2055Z" fill="#848484"/>
</g>
<path fill-rule="evenodd" clip-rule="evenodd" d="M59.1645 40.5479C59.4368 40.5479 59.6576 40.7687 59.6576 41.0411L59.6576 60.8767C59.6576 61.149 59.4368 61.3698 59.1645 61.3698C58.8921 61.3698 58.6713 61.149 58.6713 60.8767L58.6713 41.0411C58.6713 40.7687 58.8921 40.5479 59.1645 40.5479Z" fill="white"/>
<path fill-rule="evenodd" clip-rule="evenodd" d="M61.6332 42.1556C61.8347 42.3388 61.8496 42.6507 61.6664 42.8523L59.1267 45.6459L56.35 42.8692C56.1574 42.6767 56.1574 42.3644 56.35 42.1718C56.5426 41.9792 56.8549 41.9792 57.0474 42.1718L59.0927 44.2171L60.9366 42.1888C61.1198 41.9873 61.4317 41.9724 61.6332 42.1556Z" fill="white"/>
<path fill-rule="evenodd" clip-rule="evenodd" d="M56.367 60.858C56.1655 60.6748 56.1506 60.3629 56.3338 60.1614L58.8735 57.3677L61.6502 60.1444C61.8428 60.337 61.8428 60.6492 61.6502 60.8418C61.4576 61.0344 61.1453 61.0344 60.9528 60.8418L58.9075 58.7966L57.0636 60.8249C56.8804 61.0264 56.5685 61.0412 56.367 60.858Z" fill="white"/>
<path fill-rule="evenodd" clip-rule="evenodd" d="M57.6651 45.8978C57.8577 45.7053 58.1699 45.7053 58.3625 45.8978L59.1097 46.645L59.8569 45.8978C60.0495 45.7053 60.3617 45.7053 60.5543 45.8978C60.7469 46.0904 60.7469 46.4027 60.5543 46.5953L59.1097 48.0399L57.6651 46.5953C57.4725 46.4027 57.4725 46.0904 57.6651 45.8978Z" fill="white"/>
<path fill-rule="evenodd" clip-rule="evenodd" d="M60.3351 57.335C60.1425 57.5276 59.8303 57.5276 59.6377 57.335L58.8905 56.5878L58.1433 57.335C57.9507 57.5276 57.6385 57.5276 57.4459 57.335C57.2533 57.1424 57.2533 56.8302 57.4459 56.6376L58.8905 55.193L60.3351 56.6376C60.5277 56.8302 60.5277 57.1424 60.3351 57.335Z" fill="white"/>
<path fill-rule="evenodd" clip-rule="evenodd" d="M69.411 51.1232C69.411 51.3956 69.1902 51.6164 68.9178 51.6164L49.0822 51.6164C48.8098 51.6164 48.589 51.3956 48.589 51.1232C48.589 50.8509 48.8098 50.6301 49.0822 50.6301L68.9178 50.6301C69.1902 50.6301 69.411 50.8509 69.411 51.1232Z" fill="white"/>
<path fill-rule="evenodd" clip-rule="evenodd" d="M67.8033 53.592C67.62 53.7935 67.3082 53.8083 67.1066 53.6251L64.313 51.0855L67.0896 48.3088C67.2822 48.1162 67.5945 48.1162 67.7871 48.3088C67.9797 48.5014 67.9797 48.8136 67.7871 49.0062L65.7418 51.0515L67.7701 52.8953C67.9716 53.0785 67.9865 53.3904 67.8033 53.592Z" fill="white"/>
<path fill-rule="evenodd" clip-rule="evenodd" d="M49.1009 48.3258C49.2841 48.1242 49.596 48.1094 49.7975 48.2926L52.5911 50.8323L49.8145 53.6089C49.6219 53.8015 49.3096 53.8015 49.1171 53.6089C48.9245 53.4164 48.9245 53.1041 49.1171 52.9115L51.1623 50.8663L49.134 49.0224C48.9325 48.8392 48.9177 48.5273 49.1009 48.3258Z" fill="white"/>
<path fill-rule="evenodd" clip-rule="evenodd" d="M64.061 49.6239C64.2536 49.8164 64.2536 50.1287 64.061 50.3213L63.3139 51.0685L64.061 51.8156C64.2536 52.0082 64.2536 52.3205 64.061 52.5131C63.8685 52.7056 63.5562 52.7056 63.3636 52.5131L61.919 51.0685L63.3636 49.6239C63.5562 49.4313 63.8685 49.4313 64.061 49.6239Z" fill="white"/>
<path fill-rule="evenodd" clip-rule="evenodd" d="M52.6239 52.2939C52.4313 52.1013 52.4313 51.789 52.6239 51.5965L53.3711 50.8493L52.6239 50.1021C52.4313 49.9095 52.4313 49.5973 52.6239 49.4047C52.8165 49.2121 53.1287 49.2121 53.3213 49.4047L54.7659 50.8493L53.3213 52.2939C53.1287 52.4865 52.8165 52.4865 52.6239 52.2939Z" fill="white"/>
<path fill-rule="evenodd" clip-rule="evenodd" d="M66.4721 43.5268C66.6647 43.7194 66.6647 44.0317 66.4721 44.2242L52.4462 58.2501C52.2536 58.4427 51.9414 58.4427 51.7488 58.2501C51.5562 58.0576 51.5562 57.7453 51.7488 57.5527L65.7747 43.5268C65.9673 43.3342 66.2795 43.3342 66.4721 43.5268Z" fill="white"/>
<path fill-rule="evenodd" clip-rule="evenodd" d="M67.0213 46.6285C67.0343 46.9005 66.8242 47.1316 66.5522 47.1445L62.7809 47.3241L62.7809 43.3973C62.7809 43.125 63.0017 42.9042 63.2741 42.9042C63.5465 42.9042 63.7672 43.125 63.7672 43.3973L63.7672 46.2897L66.5053 46.1593C66.7773 46.1464 67.0084 46.3564 67.0213 46.6285Z" fill="white"/>
<path fill-rule="evenodd" clip-rule="evenodd" d="M50.1022 55.9469C50.0892 55.6749 50.2993 55.4438 50.5713 55.4309L54.3426 55.2513L54.3426 59.1781C54.3426 59.4505 54.1218 59.6713 53.8494 59.6713C53.5771 59.6713 53.3563 59.4505 53.3563 59.1781L53.3563 56.2857L50.6182 56.4161C50.3462 56.429 50.1151 56.219 50.1022 55.9469Z" fill="white"/>
<path fill-rule="evenodd" clip-rule="evenodd" d="M61.7398 46.1918C62.0122 46.1918 62.233 46.4126 62.233 46.685V47.7417L63.2896 47.7417C63.562 47.7417 63.7828 47.9624 63.7828 48.2348C63.7828 48.5072 63.562 48.728 63.2896 48.728H61.2467L61.2467 46.685C61.2467 46.4126 61.4675 46.1918 61.7398 46.1918Z" fill="white"/>
<path fill-rule="evenodd" clip-rule="evenodd" d="M55.6028 56.3836C55.3305 56.3836 55.1097 56.1628 55.1097 55.8904L55.1097 54.8338L54.053 54.8338C53.7807 54.8338 53.5599 54.613 53.5599 54.3406C53.5599 54.0683 53.7807 53.8475 54.053 53.8475L56.096 53.8475L56.096 55.8904C56.096 56.1628 55.8752 56.3836 55.6028 56.3836Z" fill="white"/>
<path fill-rule="evenodd" clip-rule="evenodd" d="M66.4322 58.4309C66.2396 58.6235 65.9274 58.6235 65.7348 58.4309L51.7089 44.405C51.5163 44.2124 51.5163 43.9001 51.7089 43.7076C51.9015 43.515 52.2137 43.515 52.4063 43.7076L66.4322 57.7335C66.6248 57.926 66.6248 58.2383 66.4322 58.4309Z" fill="white"/>
<path fill-rule="evenodd" clip-rule="evenodd" d="M63.3305 58.9801C63.0585 58.993 62.8274 58.783 62.8145 58.511L62.6349 54.7397L66.5617 54.7397C66.8341 54.7397 67.0548 54.9605 67.0548 55.2329C67.0548 55.5052 66.8341 55.726 66.5617 55.726L63.6693 55.726L63.7997 58.464C63.8126 58.7361 63.6026 58.9671 63.3305 58.9801Z" fill="white"/>
<path fill-rule="evenodd" clip-rule="evenodd" d="M54.0121 42.061C54.2841 42.048 54.5152 42.258 54.5281 42.5301L54.7077 46.3013L50.7809 46.3013C50.5085 46.3013 50.2877 46.0805 50.2877 45.8082C50.2877 45.5358 50.5085 45.315 50.7809 45.315L53.6733 45.315L53.5429 42.577C53.53 42.305 53.74 42.0739 54.0121 42.061Z" fill="white"/>
<path fill-rule="evenodd" clip-rule="evenodd" d="M63.7672 53.6986C63.7672 53.971 63.5464 54.1918 63.274 54.1918H62.2174L62.2174 55.2484C62.2174 55.5208 61.9966 55.7416 61.7242 55.7416C61.4518 55.7416 61.2311 55.5208 61.2311 55.2484V53.2055L63.274 53.2055C63.5464 53.2055 63.7672 53.4263 63.7672 53.6986Z" fill="white"/>
<path fill-rule="evenodd" clip-rule="evenodd" d="M53.5754 47.5616C53.5754 47.2893 53.7962 47.0685 54.0686 47.0685L55.1252 47.0685L55.1252 46.0118C55.1252 45.7395 55.346 45.5187 55.6184 45.5187C55.8907 45.5187 56.1115 45.7395 56.1115 46.0118L56.1115 48.0548L54.0686 48.0548C53.7962 48.0548 53.5754 47.834 53.5754 47.5616Z" fill="white"/>
<defs>
<filter id="filter0_bdi_311_1834" x="0" y="7.62939e-06" width="112" height="99.0685" filterUnits="userSpaceOnUse" color-interpolation-filters="sRGB">
<feFlood flood-opacity="0" result="BackgroundImageFix"/>
<feGaussianBlur in="BackgroundImage" stdDeviation="7.5"/>
<feComposite in2="SourceAlpha" operator="in" result="effect1_backgroundBlur_311_1834"/>
<feColorMatrix in="SourceAlpha" type="matrix" values="0 0 0 0 0 0 0 0 0 0 0 0 0 0 0 0 0 0 127 0" result="hardAlpha"/>
<feOffset dy="16"/>
<feGaussianBlur stdDeviation="16"/>
<feColorMatrix type="matrix" values="0 0 0 0 0 0 0 0 0 0.2015 0 0 0 0 0.3875 0 0 0 0.2 0"/>
<feBlend mode="normal" in2="effect1_backgroundBlur_311_1834" result="effect2_dropShadow_311_1834"/>
<feBlend mode="normal" in="SourceGraphic" in2="effect2_dropShadow_311_1834" result="shape"/>
<feColorMatrix in="SourceAlpha" type="matrix" values="0 0 0 0 0 0 0 0 0 0 0 0 0 0 0 0 0 0 127 0" result="hardAlpha"/>
<feOffset dx="3" dy="3"/>
<feGaussianBlur stdDeviation="2.5"/>
<feComposite in2="hardAlpha" operator="arithmetic" k2="-1" k3="1"/>
<feColorMatrix type="matrix" values="0 0 0 0 1 0 0 0 0 1 0 0 0 0 1 0 0 0 1 0"/>
<feBlend mode="normal" in2="shape" result="effect3_innerShadow_311_1834"/>
</filter>
<filter id="filter1_di_311_1834" x="24" y="15.3425" width="31.726" height="37.726" filterUnits="userSpaceOnUse" color-interpolation-filters="sRGB">
<feFlood flood-opacity="0" result="BackgroundImageFix"/>
<feColorMatrix in="SourceAlpha" type="matrix" values="0 0 0 0 0 0 0 0 0 0 0 0 0 0 0 0 0 0 127 0" result="hardAlpha"/>
<feOffset dx="-2" dy="-10"/>
<feGaussianBlur stdDeviation="3"/>
<feColorMatrix type="matrix" values="0 0 0 0 0 0 0 0 0 0 0 0 0 0 0 0 0 0 0.22 0"/>
<feBlend mode="normal" in2="BackgroundImageFix" result="effect1_dropShadow_311_1834"/>
<feBlend mode="normal" in="SourceGraphic" in2="effect1_dropShadow_311_1834" result="shape"/>
<feColorMatrix in="SourceAlpha" type="matrix" values="0 0 0 0 0 0 0 0 0 0 0 0 0 0 0 0 0 0 127 0" result="hardAlpha"/>
<feOffset dx="4" dy="2"/>
<feGaussianBlur stdDeviation="2.5"/>
<feComposite in2="hardAlpha" operator="arithmetic" k2="-1" k3="1"/>
<feColorMatrix type="matrix" values="0 0 0 0 1 0 0 0 0 1 0 0 0 0 1 0 0 0 0.74 0"/>
<feBlend mode="normal" in2="shape" result="effect2_innerShadow_311_1834"/>
</filter>
<radialGradient id="paint0_radial_311_1834" cx="0" cy="0" r="1" gradientUnits="userSpaceOnUse" gradientTransform="translate(48.9128 23.4771) rotate(90.6693) scale(27.5789 31.4712)">
<stop stop-color="white"/>
<stop offset="1" stop-color="#99CEFF"/>
</radialGradient>
</defs>
</svg>
